<svg width="80" height="25" viewBox="0 0 80 25" fill="none" xmlns="http://www.w3.org/2000/svg">
<path d="M15.8793 8.40909C15.7808 8.00758 15.6255 7.6553 15.4134 7.35227C15.2012 7.04167 14.9361 6.7803 14.6179 6.56818C14.3073 6.34848 13.9437 6.18561 13.527 6.07954C13.1179 5.96591 12.6671 5.90909 12.1747 5.90909C11.1141 5.90909 10.2088 6.16288 9.45881 6.67045C8.71638 7.17803 8.1482 7.90909 7.75426 8.86364C7.3679 9.81818 7.17472 10.9697 7.17472 12.3182C7.17472 13.6818 7.36032 14.8485 7.73153 15.8182C8.10275 16.7879 8.65578 17.5303 9.39062 18.0455C10.1255 18.5606 11.0384 18.8182 12.1293 18.8182C13.0914 18.8182 13.8906 18.678 14.527 18.3977C15.1709 18.1174 15.652 17.7197 15.9702 17.2045C16.2884 16.6894 16.4474 16.0833 16.4474 15.3864L17.5384 15.5H12.2202V11H22.5384V14.2273C22.5384 16.3485 22.0876 18.1629 21.1861 19.6705C20.2921 21.1705 19.0573 22.322 17.4815 23.125C15.9134 23.9205 14.1141 24.3182 12.0838 24.3182C9.81866 24.3182 7.83002 23.8371 6.1179 22.875C4.40578 21.9129 3.06866 20.5417 2.10653 18.7614C1.15199 16.9811 0.674716 14.8636 0.674716 12.4091C0.674716 10.4848 0.966383 8.7803 1.54972 7.29545C2.14063 5.81061 2.95881 4.55682 4.00426 3.53409C5.04972 2.50379 6.25805 1.72727 7.62926 1.20454C9.00047 0.674241 10.4702 0.40909 12.0384 0.40909C13.4171 0.40909 14.6974 0.60606 15.8793 1C17.0687 1.38636 18.1179 1.93939 19.027 2.65909C19.9437 3.37121 20.6823 4.21591 21.2429 5.19318C21.8035 6.17045 22.1444 7.24242 22.2656 8.40909H15.8793ZM48.0298 12.3636C48.0298 14.9545 47.526 17.1402 46.5185 18.9205C45.5109 20.6932 44.151 22.0379 42.4389 22.9545C40.7268 23.8636 38.8177 24.3182 36.7116 24.3182C34.5904 24.3182 32.6738 23.8598 30.9616 22.9432C29.2571 22.0189 27.901 20.6705 26.8935 18.8977C25.8935 17.1174 25.3935 14.9394 25.3935 12.3636C25.3935 9.77273 25.8935 7.59091 26.8935 5.81818C27.901 4.03788 29.2571 2.69318 30.9616 1.78409C32.6738 0.867423 34.5904 0.40909 36.7116 0.40909C38.8177 0.40909 40.7268 0.867423 42.4389 1.78409C44.151 2.69318 45.5109 4.03788 46.5185 5.81818C47.526 7.59091 48.0298 9.77273 48.0298 12.3636ZM41.5298 12.3636C41.5298 10.9697 41.3442 9.79545 40.973 8.84091C40.6094 7.87879 40.0677 7.15151 39.348 6.65909C38.6359 6.15909 37.7571 5.90909 36.7116 5.90909C35.6662 5.90909 34.7836 6.15909 34.0639 6.65909C33.3518 7.15151 32.8101 7.87879 32.4389 8.84091C32.0753 9.79545 31.8935 10.9697 31.8935 12.3636C31.8935 13.7576 32.0753 14.9356 32.4389 15.8977C32.8101 16.8523 33.3518 17.5795 34.0639 18.0795C34.7836 18.572 35.6662 18.8182 36.7116 18.8182C37.7571 18.8182 38.6359 18.572 39.348 18.0795C40.0677 17.5795 40.6094 16.8523 40.973 15.8977C41.3442 14.9356 41.5298 13.7576 41.5298 12.3636ZM57.2713 0.727272V24H50.9531V0.727272H57.2713ZM59.6293 5.81818V0.727272H79.8565V5.81818H72.8565V24H66.6293V5.81818H59.6293Z" fill="white"/>
</svg>
