<svg xmlns="http://www.w3.org/2000/svg" version="1.1" xmlns:xlink="http://www.w3.org/1999/xlink" xmlns:svgjs="http://svgjs.dev/svgjs" width="2000" height="1247" viewBox="0 0 2000 1247"><g transform="matrix(1,0,0,1,-1.2121212121212466,0.504858299595071)"><svg viewBox="0 0 396 247" data-background-color="#6092e0" preserveAspectRatio="xMidYMid meet" height="1247" width="2000" xmlns="http://www.w3.org/2000/svg" xmlns:xlink="http://www.w3.org/1999/xlink"><g id="tight-bounds" transform="matrix(1,0,0,1,0.2400000000000091,-0.09999999999999432)"><svg viewBox="0 0 395.52 247.2" height="247.2" width="395.52"><g><svg></svg></g><g><svg viewBox="0 0 395.52 247.2" height="247.2" width="395.52"><g transform="matrix(1,0,0,1,75.54432,104.04339958498235)"><svg viewBox="0 0 244.43135999999998 39.1132008300353" height="39.1132008300353" width="244.43135999999998"><g><svg viewBox="0 0 244.43135999999998 39.1132008300353" height="39.1132008300353" width="244.43135999999998"><g><svg viewBox="0 0 244.43135999999998 39.1132008300353" height="39.1132008300353" width="244.43135999999998"><g><svg viewBox="0 0 244.43135999999998 39.1132008300353" height="39.1132008300353" width="244.43135999999998"><g id="textblocktransform"><svg viewBox="0 0 244.43135999999998 39.1132008300353" height="39.1132008300353" width="244.43135999999998" id="textblock"><g><svg viewBox="0 0 244.43135999999998 39.1132008300353" height="39.1132008300353" width="244.43135999999998"><g transform="matrix(1,0,0,1,0,0)"><svg width="244.43135999999998" viewBox="2.91 -36.04 228.23 36.53" height="39.1132008300353" data-palette-color="#ffffff"><path d="M25.56-11.28L30.27-11.28Q29.61-5.64 26.11-2.58 22.61 0.49 16.8 0.49L16.8 0.49Q10.5 0.49 6.7-4.03 2.91-8.54 2.91-16.11L2.91-16.11 2.91-19.53Q2.91-24.49 4.68-28.25 6.45-32.01 9.69-34.02 12.94-36.04 17.21-36.04L17.21-36.04Q22.88-36.04 26.29-32.87 29.71-29.71 30.27-24.12L30.27-24.12 25.56-24.12Q24.95-28.37 22.91-30.27 20.87-32.18 17.21-32.18L17.21-32.18Q12.72-32.18 10.17-28.86 7.62-25.54 7.62-19.41L7.62-19.41 7.62-15.97Q7.62-10.18 10.03-6.76 12.45-3.34 16.8-3.34L16.8-3.34Q20.7-3.34 22.79-5.11 24.88-6.88 25.56-11.28L25.56-11.28ZM63.99-35.55L63.99 0 59.27 0 59.27-16.43 41.35-16.43 41.35 0 36.67 0 36.67-35.55 41.35-35.55 41.35-20.26 59.27-20.26 59.27-35.55 63.99-35.55ZM93.06 0L85.35-14.38 77-14.38 77 0 72.29 0 72.29-35.55 84.05-35.55Q90.06-35.55 93.29-32.81 96.53-30.08 96.53-24.85L96.53-24.85Q96.53-21.53 94.73-19.07 92.94-16.6 89.74-15.38L89.74-15.38 98.09-0.29 98.09 0 93.06 0ZM77-31.69L77-18.21 84.2-18.21Q87.69-18.21 89.75-20.02 91.82-21.83 91.82-24.85L91.82-24.85Q91.82-28.15 89.85-29.91 87.89-31.67 84.17-31.69L84.17-31.69 77-31.69ZM130.44-18.87L130.44-16.63Q130.44-11.4 128.68-7.51 126.92-3.61 123.7-1.56 120.48 0.49 116.18 0.49L116.18 0.49Q111.98 0.49 108.73-1.57 105.49-3.64 103.69-7.46 101.9-11.28 101.85-16.31L101.85-16.31 101.85-18.87Q101.85-24 103.63-27.93 105.41-31.86 108.67-33.95 111.93-36.04 116.13-36.04L116.13-36.04Q120.4-36.04 123.66-33.97 126.92-31.91 128.68-27.99 130.44-24.07 130.44-18.87L130.44-18.87ZM125.77-16.28L125.77-18.92Q125.77-25.24 123.23-28.63 120.7-32.01 116.13-32.01L116.13-32.01Q111.69-32.01 109.14-28.63 106.58-25.24 106.51-19.24L106.51-19.24 106.51-16.63Q106.51-10.5 109.09-6.99 111.66-3.49 116.18-3.49L116.18-3.49Q120.72-3.49 123.21-6.8 125.7-10.11 125.77-16.28L125.77-16.28ZM164.78-35.55L164.78 0 160.07 0 142.18-27.39 142.18 0 137.47 0 137.47-35.55 142.18-35.55 160.12-8.03 160.12-35.55 164.78-35.55ZM200.45-18.87L200.45-16.63Q200.45-11.4 198.69-7.51 196.94-3.61 193.71-1.56 190.49 0.49 186.19 0.49L186.19 0.49Q181.99 0.49 178.75-1.57 175.5-3.64 173.71-7.46 171.91-11.28 171.86-16.31L171.86-16.31 171.86-18.87Q171.86-24 173.64-27.93 175.43-31.86 178.69-33.95 181.95-36.04 186.14-36.04L186.14-36.04Q190.42-36.04 193.68-33.97 196.94-31.91 198.69-27.99 200.45-24.07 200.45-18.87L200.45-18.87ZM195.79-16.28L195.79-18.92Q195.79-25.24 193.25-28.63 190.71-32.01 186.14-32.01L186.14-32.01Q181.7-32.01 179.15-28.63 176.6-25.24 176.53-19.24L176.53-19.24 176.53-16.63Q176.53-10.5 179.1-6.99 181.68-3.49 186.19-3.49L186.19-3.49Q190.73-3.49 193.22-6.8 195.72-10.11 195.79-16.28L195.79-16.28ZM217.95-15.84L217.95-15.84Q211.92-17.58 209.18-20.1 206.43-22.63 206.43-26.34L206.43-26.34Q206.43-30.54 209.79-33.29 213.14-36.04 218.52-36.04L218.52-36.04Q222.18-36.04 225.05-34.62 227.91-33.2 229.49-30.71 231.06-28.22 231.06-25.27L231.06-25.27 226.35-25.27Q226.35-28.49 224.3-30.33 222.25-32.18 218.52-32.18L218.52-32.18Q215.05-32.18 213.11-30.65 211.17-29.13 211.17-26.42L211.17-26.42Q211.17-24.24 213.01-22.74 214.85-21.24 219.28-20 223.72-18.75 226.22-17.25 228.72-15.75 229.93-13.75 231.14-11.74 231.14-9.03L231.14-9.03Q231.14-4.71 227.77-2.11 224.4 0.49 218.76 0.49L218.76 0.49Q215.1 0.49 211.92-0.92 208.75-2.32 207.03-4.76 205.31-7.2 205.31-10.3L205.31-10.3 210.02-10.3Q210.02-7.08 212.4-5.21 214.78-3.34 218.76-3.34L218.76-3.34Q222.47-3.34 224.45-4.86 226.43-6.37 226.43-8.98 226.43-11.6 224.59-13.02 222.76-14.45 217.95-15.84Z" opacity="1" transform="matrix(1,0,0,1,0,0)" fill="#000000" class="wordmark-text-0" data-fill-palette-color="primary" id="text-0"></path></svg></g></svg></g></svg></g></svg></g></svg></g></svg></g></svg></g><path d="M182.884 98.043L182.884 35.554 6.791 35.554 6.791 211.646 182.884 211.646 182.884 149.157 179.357 149.157 179.357 208.119 10.318 208.119 10.318 39.081 179.357 39.081 179.357 98.043Z" fill="#000000" stroke="transparent" data-fill-palette-color="tertiary"></path></svg></g><defs></defs></svg><rect width="395.52" height="247.2" fill="none" stroke="none" visibility="hidden"></rect></g></svg></g></svg>