<svg width="92" height="25" viewBox="0 0 92 25" fill="none" xmlns="http://www.w3.org/2000/svg">
<path d="M0.984375 24V0.727272H7.30256V18.9091H16.7116V24H0.984375ZM40.9048 12.3636C40.9048 14.9545 40.401 17.1402 39.3935 18.9205C38.3859 20.6932 37.026 22.0379 35.3139 22.9545C33.6018 23.8636 31.6927 24.3182 29.5866 24.3182C27.4654 24.3182 25.5488 23.8598 23.8366 22.9432C22.1321 22.0189 20.776 20.6705 19.7685 18.8977C18.7685 17.1174 18.2685 14.9394 18.2685 12.3636C18.2685 9.77273 18.7685 7.59091 19.7685 5.81818C20.776 4.03788 22.1321 2.69318 23.8366 1.78409C25.5488 0.867423 27.4654 0.40909 29.5866 0.40909C31.6927 0.40909 33.6018 0.867423 35.3139 1.78409C37.026 2.69318 38.3859 4.03788 39.3935 5.81818C40.401 7.59091 40.9048 9.77273 40.9048 12.3636ZM34.4048 12.3636C34.4048 10.9697 34.2192 9.79545 33.848 8.84091C33.4844 7.87879 32.9427 7.15151 32.223 6.65909C31.5109 6.15909 30.6321 5.90909 29.5866 5.90909C28.5412 5.90909 27.6586 6.15909 26.9389 6.65909C26.2268 7.15151 25.6851 7.87879 25.3139 8.84091C24.9503 9.79545 24.7685 10.9697 24.7685 12.3636C24.7685 13.7576 24.9503 14.9356 25.3139 15.8977C25.6851 16.8523 26.2268 17.5795 26.9389 18.0795C27.6586 18.572 28.5412 18.8182 29.5866 18.8182C30.6321 18.8182 31.5109 18.572 32.223 18.0795C32.9427 17.5795 33.4844 16.8523 33.848 15.8977C34.2192 14.9356 34.4048 13.7576 34.4048 12.3636ZM58.9418 8.40909C58.8433 8.00758 58.688 7.6553 58.4759 7.35227C58.2637 7.04167 57.9986 6.7803 57.6804 6.56818C57.3698 6.34848 57.0062 6.18561 56.5895 6.07954C56.1804 5.96591 55.7296 5.90909 55.2372 5.90909C54.1766 5.90909 53.2713 6.16288 52.5213 6.67045C51.7789 7.17803 51.2107 7.90909 50.8168 8.86364C50.4304 9.81818 50.2372 10.9697 50.2372 12.3182C50.2372 13.6818 50.4228 14.8485 50.794 15.8182C51.1652 16.7879 51.7183 17.5303 52.4531 18.0455C53.188 18.5606 54.1009 18.8182 55.1918 18.8182C56.1539 18.8182 56.9531 18.678 57.5895 18.3977C58.2334 18.1174 58.7145 17.7197 59.0327 17.2045C59.3509 16.6894 59.5099 16.0833 59.5099 15.3864L60.6009 15.5H55.2827V11H65.6009V14.2273C65.6009 16.3485 65.1501 18.1629 64.2486 19.6705C63.3546 21.1705 62.1198 22.322 60.544 23.125C58.9759 23.9205 57.1766 24.3182 55.1463 24.3182C52.8812 24.3182 50.8925 23.8371 49.1804 22.875C47.4683 21.9129 46.1312 20.5417 45.169 18.7614C44.2145 16.9811 43.7372 14.8636 43.7372 12.4091C43.7372 10.4848 44.0289 8.7803 44.6122 7.29545C45.2031 5.81061 46.0213 4.55682 47.0668 3.53409C48.1122 2.50379 49.3205 1.72727 50.6918 1.20454C52.063 0.674241 53.5327 0.40909 55.1009 0.40909C56.4796 0.40909 57.7599 0.60606 58.9418 1C60.1312 1.38636 61.1804 1.93939 62.0895 2.65909C63.0062 3.37121 63.7448 4.21591 64.3054 5.19318C64.866 6.17045 65.2069 7.24242 65.3281 8.40909H58.9418ZM91.0923 12.3636C91.0923 14.9545 90.5885 17.1402 89.581 18.9205C88.5734 20.6932 87.2135 22.0379 85.5014 22.9545C83.7893 23.8636 81.8802 24.3182 79.7741 24.3182C77.6529 24.3182 75.7363 23.8598 74.0241 22.9432C72.3196 22.0189 70.9635 20.6705 69.956 18.8977C68.956 17.1174 68.456 14.9394 68.456 12.3636C68.456 9.77273 68.956 7.59091 69.956 5.81818C70.9635 4.03788 72.3196 2.69318 74.0241 1.78409C75.7363 0.867423 77.6529 0.40909 79.7741 0.40909C81.8802 0.40909 83.7893 0.867423 85.5014 1.78409C87.2135 2.69318 88.5734 4.03788 89.581 5.81818C90.5885 7.59091 91.0923 9.77273 91.0923 12.3636ZM84.5923 12.3636C84.5923 10.9697 84.4067 9.79545 84.0355 8.84091C83.6719 7.87879 83.1302 7.15151 82.4105 6.65909C81.6984 6.15909 80.8196 5.90909 79.7741 5.90909C78.7287 5.90909 77.8461 6.15909 77.1264 6.65909C76.4143 7.15151 75.8726 7.87879 75.5014 8.84091C75.1378 9.79545 74.956 10.9697 74.956 12.3636C74.956 13.7576 75.1378 14.9356 75.5014 15.8977C75.8726 16.8523 76.4143 17.5795 77.1264 18.0795C77.8461 18.572 78.7287 18.8182 79.7741 18.8182C80.8196 18.8182 81.6984 18.572 82.4105 18.0795C83.1302 17.5795 83.6719 16.8523 84.0355 15.8977C84.4067 14.9356 84.5923 13.7576 84.5923 12.3636Z" fill="white"/>
</svg>
